<?xml version="1.0" encoding="utf-8"?>
<!-- Generator: Adobe Illustrator 16.0.0, SVG Export Plug-In . SVG Version: 6.00 Build 0)  -->
<!DOCTYPE svg PUBLIC "-//W3C//DTD SVG 1.1//EN" "http://www.w3.org/Graphics/SVG/1.1/DTD/svg11.dtd">
<svg version="1.1" id="Warstwa_1" xmlns="http://www.w3.org/2000/svg" xmlns:xlink="http://www.w3.org/1999/xlink" x="0px" y="0px"
	 width="170.069px" height="33.532px" viewBox="0 0 170.069 33.532" enable-background="new 0 0 170.069 33.532"
	 xml:space="preserve">
<g>
	<path fill="#FFFFFF" d="M88.533,0c-1.693,0-2.922,1.345-2.922,2.847c0,1.503,1.229,2.85,2.922,2.85c1.692,0,3-1.226,3-2.85
		C91.533,1.226,90.226,0,88.533,0 M86.344,26.804h4.453V8.986h-4.453V26.804z M46.471,8.541c-5.38,0-9.685,3.747-9.685,9.354
		c0,5.604,4.305,9.355,9.685,9.355c2.455,0,4.765-0.763,6.695-2.644l-2.811-2.811c-1.048,1.104-2.394,1.89-4.326,1.89
		c-2.488,0-4.492-1.599-4.79-4.231h13.586v-1.225C54.825,12.029,51.449,8.541,46.471,8.541z M41.239,16.112
		c0.335-2.562,1.969-4.232,4.603-4.232c2.784,0,4.492,1.635,4.531,4.232H41.239z M61.038,13.997c0-1.337,1.411-1.893,2.601-1.893
		c1.511,0,2.623,0.625,3.475,1.803l2.833-2.83c-1.467-1.831-3.898-2.536-6.199-2.536c-3.601,0-7.165,1.78-7.165,5.754
		c0,6.793,9.614,3.897,9.614,7.571c0,1.41-1.67,2.041-2.968,2.041c-1.889,0-3.075-0.922-4.223-2.18l-2.877,2.876
		c1.807,1.958,4.142,2.646,6.84,2.646c3.636,0,7.685-1.484,7.685-5.718C70.654,14.59,61.038,17.189,61.038,13.997z M77.229,11.805
		h-0.071V8.986h-4.454v17.817h4.454v-9.541c0-0.964,0.592-4.492,4.788-4.492c0.646,0,1.289,0.128,1.966,0.289l0.174-4.263
		c-0.515-0.145-1.031-0.256-1.582-0.256C80.163,8.541,78.195,9.765,77.229,11.805z M16.913,2.593
		c-1.392-0.042-2.21,0.137-3.033,0.297c-0.247-0.064-0.71,0.003-0.736,0.541c0,0.288,0.091,0.511,0.274,0.643
		c0.183,0.13,1.708,1.258,2.83,2.451c-0.537,0.059-1.122,0.157-1.721,0.281c-0.669-1.446-2.821-0.131-4.249-0.074
		c-0.167,0.007-0.328,0.029-0.493,0.04C9.628,5.565,9.516,4.313,9.544,3.431c1.852-1.048,5.433-1.822,7.866-1.86l0.426-0.011
		c0.357-0.003,0.386-0.288,0.05-0.334c-3.023-0.412-5.64,0.199-8.328,1.311c-2.798,1.18-6.359,3.893-8.53,9.015
		c-0.507,1.427-2.538,8.232,1.07,14.073c2.928,4.74,6.7,6.995,11.313,7.64c4.604,0.642,7.102,0.085,10.014-1.208
		c6.809-3.022,12.009-14.369,6.807-22.594C28.18,5.665,22.801,2.336,16.913,2.593z M14.329,7.91
		c0.871-0.189,1.765-0.346,2.702-0.421c0.73,0.873,1.389,1.799,2,2.906c-0.922,0.446-2.149,0.787-2.649,1.502
		c-0.207,0.297-0.258,0.701-0.265,1.137c-1.634,0.385-3.072,0.893-4.436,1.472c-0.518-1.524-0.973-3.042-1.286-4.396
		C11.878,8.695,13.614,8.465,14.329,7.91z M21.892,26.08c-0.406,0.043-0.809,0.095-1.164,0.149
		c-0.879,0.138-2.015,0.433-3.071,0.827c-0.607-0.966-2.231-3.309-3.052-5.077c1.65-0.812,3.956-1.491,6.608-1.652
		c0.217,0.377,0.458,0.754,0.79,1.094C22.869,22.308,21.498,23.575,21.892,26.08z M12.048,15.622
		c1.283-0.607,2.631-1.107,4.074-1.471c-0.01,0.38-0.053,0.742-0.209,1.033c-0.225,0.418-0.122,1.634,0.153,2.031
		c0.864,1.258,2.298,0.559,3.377,1.011c0.495,0.207,0.825,0.551,1.102,0.96c-2.257,0.143-4.472,0.669-6.527,1.614
		C12.961,18.558,12.048,15.622,12.048,15.622z M13.001,21.271c-0.081,0.038-0.167,0.085-0.249,0.126
		c-1.261-0.352-2.043-0.547-3.726-0.893c-1.138-0.232-1.18-0.172-2.461,0.201c-0.183,0.053-0.358,0.101-0.528,0.151
		c-0.171-0.437-0.34-0.889-0.51-1.375c1.643-1.266,3.3-2.327,5.517-3.415C11.615,17.773,12.433,20.054,13.001,21.271z
		 M13.878,26.453c0.336-0.875,0.597-1.523,0.692-2.162c0.652,1.095,1.429,2.287,2.031,3.22c-0.937,0.455-2.027,1.155-3.058,1.929
		C13.614,28.253,13.639,27.077,13.878,26.453z M19.982,9.706c-0.012,0.017-0.032,0.03-0.045,0.046
		c-0.468-0.821-0.981-1.592-1.576-2.415c1.153-0.07,2.571-0.01,3.861,0.124C21.062,7.876,20.55,8.895,19.982,9.706z M9.652,10.958
		c0.021-0.03,0.044-0.053,0.066-0.082c0.267,1.352,0.587,2.472,1.013,4.025c-1.605,0.707-4.441,2.457-5.693,3.4
		c-0.227-0.574-0.463-1.39-0.674-2.228c0.284-0.842,0.866-1.434,1.689-1.516C7.457,14.418,8.662,12.328,9.652,10.958z M3.463,8.917
		c1.502-2.103,3.542-4.15,5.403-5.171C8.848,4.203,8.964,5.538,9.115,6.827C8.463,6.892,7.818,6.973,7.179,7.068
		C5.677,8.344,4.461,9.94,3.616,11.745C3.481,10.54,3.412,9.534,3.463,8.917z M2.482,10.562c0,0,0.071,1.213,0.13,2.097
		c0,0-0.894,1.015-1.349,1.821C1.443,12.828,1.832,11.976,2.482,10.562z M11.251,31.565c-4.629-1.451-8.059-5.352-9.282-9.443
		C1.258,19.743,1,17.109,1.224,14.716c0.064,0.01,0.213,0.082,0.435,0.019c0.154-0.106,0.704-0.492,1.095-0.833
		c0.006,0.045,0.015,0.102,0.021,0.151c-0.263,0.994-0.425,2.03-0.459,3.1c0.424,0.447,0.92,1.187,1.472,1.952
		c-0.355,0.264-1.036,0.734-1.195,0.849c-0.47,0.334-0.465,0.861-0.131,1.161c0.184,0.165,0.563,0.097,0.701-0.012
		c0.41-0.326,0.751-0.587,1.22-0.88c0.173,0.449,0.334,0.854,0.492,1.241c-0.2,0.217-0.344,0.499-0.392,0.914
		c-0.153,1.34,1.121,2.393,2.196,2.7c0.04,0.012,0.069,0.017,0.107,0.026c0.057,0.086,0.109,0.168,0.169,0.256
		c-0.558,0.433-0.938,0.875-1.2,1.216c-0.151,0.197-0.321,0.492-0.182,0.551c0.139,0.058,0.611,0,0.822-0.039
		c0.533-0.103,0.945-0.693,1.313-0.909c0.443,0.609,1.164,1.396,1.913,2.149c0.033,0.137,0.063,0.281,0.101,0.402
		c0.143,0.461,0.335,0.919,0.566,1.368c0.54,0.251,1.101,0.46,1.675,0.642C11.709,31.003,11.34,31.433,11.251,31.565z
		 M12.383,31.923c0.178-0.231,0.357-0.52,0.578-0.716c0.535,0.354,1.108,0.761,1.565,1.022
		C13.822,32.15,12.996,32.133,12.383,31.923z M15.945,32.277c0,0-1.836-1.215-2.299-1.682c0.919-0.765,2.406-1.67,3.58-2.162
		c0.459,0.722,1.975,2.868,2.583,3.561C18.707,32.187,17.165,32.33,15.945,32.277z M23.617,30.552
		c-0.328,0.216-1.904,0.931-2.522,1.13c-0.947-1.038-2.017-2.414-2.792-3.663c0.966-0.405,2.452-0.768,3.829-0.939
		c0.124,0.394,0.285,0.806,0.508,1.252c0.218,0.438,0.47,0.758,0.742,0.977c0.097-0.061,0.188-0.132,0.284-0.194
		C23.659,29.593,23.646,30.081,23.617,30.552z M23.239,5.977c-0.309-0.196-0.695-0.123-0.534,0.222
		c0.061,0.133,0.296,0.358,0.488,0.585c-1.128-0.312-4.128-0.547-5.556-0.417c-0.932-1.048-1.995-2.32-3.274-3.163
		c5.72-0.356,10.858,2.01,13.128,4.789c-0.757-0.394-2.389-0.953-3.052-1.102C24.081,6.527,23.63,6.227,23.239,5.977z M24.491,30.08
		c0.027-0.466,0.046-1.056,0.061-1.598c0.557-0.433,1.082-0.904,1.567-1.416c0.626,0.073,1.252,0.178,1.633,0.273
		C26.904,28.412,25.736,29.305,24.491,30.08z M28.867,25.818c-0.137,0.29-0.489,0.788-0.724,1.023
		c-0.357-0.145-0.894-0.295-1.456-0.429c0.09-0.106,0.187-0.209,0.274-0.319c0.308-2.055-0.386-2.713,0.482-4.593
		c0.061-0.131,0.127-0.275,0.197-0.425c0.478,0.136,0.929,0.283,1.318,0.441C29.009,22.224,29.004,24.641,28.867,25.818z
		 M28.057,20.193c0.224-0.466,0.471-0.961,0.739-1.454c0.069,0.627,0.119,1.237,0.149,1.789
		C28.67,20.407,28.368,20.298,28.057,20.193z M30.595,21.481l-0.222,0.866c-0.156,0.588-0.679,1.98-0.952,2.543
		c0.104-0.76,0.196-2.729,0.17-3.124c0.182,0.056,0.574-0.168,0.639-0.391s-0.645-0.566-0.645-0.566
		c0.013-0.897-0.064-2.016-0.197-3.089c0.163-0.263,0.328-0.518,0.496-0.75c-0.027-0.613-0.108-1.211-0.212-1.801
		c0.142,0.047,0.275,0.085,0.37,0.086c0.323,0.005,0.322-0.218,0.219-0.341c-0.067-0.081-0.375-0.273-0.735-0.48
		c-0.54-2.305-1.649-4.389-3.182-6.088c0.611,0.231,1.389,0.549,2.008,0.885c0.469,0.591,1.813,1.917,2.53,5.63
		C31.528,18.204,30.814,20.745,30.595,21.481z"/>
</g>
<g>
	<path fill="#FFFFFF" d="M105.042,9.707h5.977c4.344,0,5.448,2.617,5.448,4.753s-1.104,4.751-5.448,4.751h-3.673v7.489h-2.304V9.707
		 M107.346,17.196h3.024c1.824,0,3.648-0.432,3.648-2.736s-1.824-2.737-3.648-2.737h-3.024V17.196z"/>
	<path fill="#FFFFFF" d="M123.472,15.036c3.384,0,6.048,2.664,6.048,5.977s-2.664,5.977-6.048,5.977
		c-3.385,0-6.049-2.664-6.049-5.977S120.087,15.036,123.472,15.036 M123.472,24.974c2.304,0,3.744-1.656,3.744-3.961
		s-1.44-3.961-3.744-3.961c-2.305,0-3.744,1.656-3.744,3.961S121.167,24.974,123.472,24.974z"/>
	<rect x="132.312" y="8.555" fill="#FFFFFF" width="2.16" height="18.146"/>
	<path fill="#FFFFFF" d="M143.922,18.182c-0.504-0.625-1.248-1.13-2.328-1.13c-1.008,0-1.896,0.456-1.896,1.272
		c0,1.368,1.944,1.561,2.904,1.776c1.872,0.457,3.312,1.176,3.312,3.312c0,2.568-2.353,3.576-4.608,3.576
		c-1.872,0-3.265-0.48-4.393-2.016l1.632-1.345c0.696,0.696,1.513,1.345,2.761,1.345c1.104,0,2.304-0.457,2.304-1.441
		c0-1.295-1.8-1.535-2.735-1.752c-1.849-0.455-3.48-1.056-3.48-3.24c0-2.376,2.184-3.504,4.32-3.504
		c1.512,0,3.072,0.528,3.888,1.872L143.922,18.182"/>
	<polyline fill="#FFFFFF" points="148.535,8.555 150.695,8.555 150.695,20.269 155.592,15.348 158.593,15.348 153.288,20.509 
		159.049,26.701 155.977,26.701 150.695,20.797 150.695,26.701 148.535,26.701 148.535,8.555 	"/>
	<path fill="#FFFFFF" d="M160.708,16.716c1.2-1.127,2.929-1.68,4.513-1.68c3.36,0,4.753,1.824,4.753,3.793v5.809
		c0,0.792,0.023,1.463,0.096,2.063h-1.92c-0.048-0.576-0.072-1.152-0.072-1.728h-0.048c-0.96,1.463-2.257,2.016-3.984,2.016
		c-2.112,0-3.937-1.2-3.937-3.408c0-2.928,2.809-3.937,6.265-3.937h1.584v-0.479c0-1.177-0.864-2.4-2.712-2.4
		c-1.656,0-2.448,0.695-3.24,1.296L160.708,16.716 M166.805,21.229c-2.04,0-4.536,0.36-4.536,2.185c0,1.296,0.96,1.848,2.448,1.848
		c2.4,0,3.24-1.775,3.24-3.312v-0.72H166.805z"/>
</g>
</svg>
