<?xml version="1.0" encoding="utf-8"?>
<!-- Generator: Adobe Illustrator 13.0.0, SVG Export Plug-In . SVG Version: 6.00 Build 14948)  -->
<!DOCTYPE svg PUBLIC "-//W3C//DTD SVG 1.1//EN" "http://www.w3.org/Graphics/SVG/1.1/DTD/svg11.dtd">
<svg version="1.1" id="Layer_1" xmlns="http://www.w3.org/2000/svg" xmlns:xlink="http://www.w3.org/1999/xlink" x="0px" y="0px"
	 width="210px" height="38.116px" viewBox="0 0 210 38.116" enable-background="new 0 0 210 38.116" xml:space="preserve">
<g>
	<path fill="#FFFFFF" d="M100.636,0c-1.922,0-3.319,1.529-3.319,3.238c0,1.707,1.397,3.238,3.319,3.238
		c1.925,0,3.413-1.393,3.413-3.238C104.049,1.394,102.562,0,100.636,0z M98.148,30.47h5.064V10.216h-5.064V30.47z M52.824,9.71
		c-6.113,0-11.009,4.256-11.009,10.629c0,6.37,4.896,10.636,11.009,10.636c2.79,0,5.418-0.867,7.61-3.008l-3.194-3.191
		c-1.19,1.255-2.719,2.146-4.918,2.146c-2.826,0-5.106-1.818-5.445-4.808h15.445V20.72C62.321,13.672,58.483,9.71,52.824,9.71z
		 M46.876,18.316c0.383-2.915,2.239-4.812,5.233-4.812c3.165,0,5.107,1.859,5.15,4.812H46.876z M69.385,15.91
		c0-1.52,1.601-2.151,2.956-2.151c1.717,0,2.981,0.711,3.95,2.05l3.219-3.216c-1.667-2.08-4.43-2.881-7.044-2.881
		c-4.093,0-8.147,2.023-8.147,6.54c0,7.722,10.931,4.43,10.931,8.604c0,1.604-1.9,2.324-3.376,2.324
		c-2.146,0-3.493-1.054-4.799-2.479l-3.271,3.265c2.054,2.228,4.709,3.011,7.776,3.011c4.133,0,8.736-1.688,8.736-6.502
		C80.314,16.585,69.385,19.54,69.385,15.91z M87.788,13.419h-0.081v-3.203h-5.062V30.47h5.062V19.625
		c0-1.098,0.674-5.107,5.442-5.107c0.737,0,1.468,0.145,2.236,0.329l0.198-4.844c-0.585-0.167-1.17-0.292-1.796-0.292
		C91.125,9.71,88.887,11.099,87.788,13.419z M19.227,2.947c-1.583-0.047-2.514,0.153-3.449,0.336
		c-0.282-0.071-0.808,0.005-0.835,0.615c0,0.329,0.104,0.583,0.31,0.731c0.208,0.151,1.944,1.43,3.217,2.785
		c-0.611,0.069-1.274,0.182-1.956,0.324c-0.759-1.644-3.206-0.152-4.83-0.084c-0.19,0.008-0.374,0.03-0.563,0.044
		c-0.175-1.371-0.303-2.795-0.271-3.799c2.104-1.19,6.175-2.068,8.941-2.11l0.484-0.018c0.407-0.001,0.438-0.325,0.055-0.376
		c-3.434-0.47-6.408,0.227-9.466,1.49c-3.18,1.34-7.229,4.425-9.698,10.246c-0.574,1.624-2.883,9.361,1.217,15.998
		c3.331,5.387,7.618,7.953,12.86,8.683c5.234,0.731,8.072,0.1,11.385-1.37c7.739-3.437,13.65-16.335,7.736-25.684
		C32.031,6.439,25.919,2.655,19.227,2.947z M16.287,8.993c0.989-0.215,2.006-0.396,3.073-0.48c0.83,0.993,1.578,2.044,2.273,3.302
		c-1.047,0.506-2.444,0.896-3.009,1.709c-0.239,0.336-0.295,0.798-0.303,1.293c-1.856,0.436-3.492,1.013-5.043,1.672
		c-0.589-1.733-1.105-3.46-1.463-4.999C13.503,9.883,15.475,9.623,16.287,8.993z M24.887,29.648
		c-0.464,0.047-0.92,0.104-1.324,0.165c-1,0.157-2.293,0.495-3.491,0.941c-0.69-1.096-2.537-3.758-3.469-5.771
		c1.875-0.925,4.497-1.691,7.51-1.876c0.248,0.428,0.521,0.855,0.9,1.243C25.997,25.358,24.437,26.799,24.887,29.648z
		 M13.697,17.757c1.456-0.687,2.99-1.258,4.629-1.671c-0.011,0.431-0.061,0.843-0.24,1.172c-0.252,0.477-0.138,1.86,0.176,2.311
		c0.983,1.424,2.613,0.637,3.84,1.147c0.561,0.233,0.937,0.626,1.252,1.09c-2.566,0.163-5.085,0.762-7.422,1.835
		C14.734,21.094,13.697,17.757,13.697,17.757z M14.777,24.179c-0.091,0.042-0.19,0.093-0.283,0.145
		c-1.433-0.399-2.319-0.62-4.233-1.015c-1.296-0.269-1.343-0.194-2.798,0.229c-0.206,0.058-0.406,0.11-0.6,0.174
		c-0.194-0.5-0.387-1.012-0.581-1.566c1.869-1.438,3.752-2.646,6.271-3.881C13.205,20.207,14.135,22.792,14.777,24.179z
		 M15.777,30.072c0.383-0.995,0.675-1.736,0.787-2.458c0.74,1.245,1.622,2.596,2.307,3.661c-1.063,0.515-2.302,1.311-3.477,2.188
		C15.476,32.118,15.502,30.779,15.777,30.072z M22.716,11.034c-0.016,0.02-0.04,0.033-0.053,0.053
		c-0.532-0.936-1.116-1.809-1.79-2.749c1.307-0.077,2.92-0.01,4.386,0.143C23.942,8.951,23.361,10.114,22.716,11.034z
		 M10.973,12.458c0.023-0.037,0.05-0.062,0.074-0.094c0.304,1.539,0.665,2.81,1.151,4.573c-1.823,0.805-5.047,2.797-6.471,3.865
		c-0.261-0.652-0.526-1.574-0.769-2.53c0.325-0.958,0.986-1.629,1.921-1.721C8.479,16.389,9.847,14.015,10.973,12.458z
		 M3.935,10.136c1.709-2.389,4.029-4.717,6.142-5.876c-0.019,0.52,0.112,2.038,0.284,3.501C9.622,7.834,8.889,7.926,8.163,8.034
		c-1.71,1.453-3.093,3.265-4.054,5.316C3.959,11.982,3.88,10.839,3.935,10.136z M2.823,12.004c0,0,0.077,1.381,0.146,2.384
		c0,0-1.016,1.157-1.533,2.073C1.641,14.581,2.082,13.615,2.823,12.004z M12.791,35.88c-5.266-1.648-9.163-6.085-10.552-10.731
		c-0.808-2.707-1.102-5.701-0.846-8.422c0.069,0.012,0.241,0.094,0.491,0.023c0.177-0.12,0.802-0.559,1.247-0.948
		c0.007,0.054,0.018,0.116,0.025,0.172c-0.3,1.131-0.485,2.307-0.522,3.522c0.479,0.509,1.045,1.353,1.672,2.22
		c-0.403,0.297-1.177,0.835-1.357,0.967c-0.534,0.381-0.527,0.974-0.149,1.317c0.209,0.188,0.642,0.112,0.797-0.013
		c0.466-0.372,0.852-0.666,1.388-1.002c0.193,0.514,0.378,0.974,0.559,1.412c-0.226,0.244-0.392,0.568-0.444,1.038
		c-0.175,1.528,1.271,2.719,2.494,3.069c0.044,0.014,0.08,0.018,0.121,0.029c0.067,0.101,0.123,0.192,0.192,0.295
		c-0.633,0.489-1.065,0.99-1.361,1.378c-0.174,0.223-0.368,0.56-0.209,0.625c0.158,0.07,0.695,0,0.935-0.043
		c0.606-0.112,1.072-0.789,1.492-1.034c0.504,0.698,1.322,1.589,2.176,2.445c0.037,0.156,0.069,0.321,0.114,0.455
		c0.161,0.527,0.381,1.044,0.643,1.559c0.614,0.283,1.251,0.519,1.905,0.726C13.311,35.242,12.892,35.728,12.791,35.88z
		 M14.075,36.287c0.201-0.261,0.406-0.591,0.659-0.813c0.608,0.402,1.258,0.863,1.778,1.164
		C15.711,36.544,14.772,36.525,14.075,36.287z M18.126,36.69c0,0-2.089-1.382-2.614-1.91c1.044-0.873,2.735-1.902,4.069-2.457
		c0.522,0.821,2.246,3.26,2.938,4.043C21.263,36.585,19.511,36.749,18.126,36.69z M26.847,34.725
		c-0.373,0.251-2.164,1.064-2.867,1.289c-1.077-1.182-2.292-2.748-3.174-4.167c1.1-0.46,2.788-0.872,4.351-1.066
		c0.144,0.444,0.324,0.918,0.579,1.423c0.246,0.501,0.535,0.86,0.843,1.113c0.111-0.073,0.214-0.15,0.323-0.227
		C26.893,33.637,26.879,34.196,26.847,34.725z M26.417,6.792c-0.353-0.221-0.789-0.138-0.606,0.254
		c0.066,0.15,0.335,0.409,0.553,0.664c-1.281-0.353-4.693-0.622-6.315-0.47c-1.06-1.195-2.271-2.639-3.722-3.596
		C22.83,3.239,28.67,5.927,31.25,9.087c-0.862-0.45-2.716-1.085-3.469-1.252C27.375,7.417,26.861,7.079,26.417,6.792z
		 M27.841,34.194c0.03-0.533,0.052-1.201,0.067-1.817c0.633-0.488,1.231-1.028,1.785-1.61c0.708,0.086,1.419,0.202,1.854,0.314
		C30.582,32.299,29.254,33.313,27.841,34.194z M32.814,29.346c-0.157,0.333-0.555,0.901-0.824,1.166
		c-0.405-0.166-1.016-0.339-1.653-0.491c0.102-0.117,0.213-0.236,0.31-0.358c0.349-2.34-0.438-3.083,0.548-5.225
		c0.069-0.145,0.146-0.308,0.222-0.479c0.546,0.155,1.059,0.317,1.501,0.498C32.976,25.259,32.971,28.011,32.814,29.346z
		 M31.893,22.954c0.256-0.532,0.535-1.09,0.84-1.652c0.079,0.71,0.137,1.407,0.171,2.035C32.59,23.196,32.244,23.075,31.893,22.954z
		 M34.777,24.417l-0.25,0.984c-0.179,0.668-0.773,2.252-1.083,2.892c0.118-0.862,0.222-3.101,0.193-3.55
		c0.207,0.063,0.651-0.19,0.727-0.443c0.074-0.257-0.733-0.648-0.733-0.648c0.014-1.021-0.073-2.29-0.225-3.512
		c0.187-0.294,0.371-0.584,0.563-0.851c-0.029-0.697-0.122-1.376-0.24-2.047c0.163,0.054,0.313,0.096,0.42,0.097
		c0.369,0.005,0.368-0.245,0.247-0.389c-0.073-0.089-0.425-0.308-0.834-0.544c-0.613-2.617-1.874-4.986-3.616-6.918
		c0.695,0.259,1.578,0.625,2.28,1.003c0.538,0.671,2.062,2.18,2.876,6.401C35.84,20.693,35.029,23.582,34.777,24.417z"/>
	<g>
		<path fill="#FFFFFF" d="M121.668,11.036v11.843c0,2.396,1.2,5.513,4.857,5.513c3.656,0,4.857-3.117,4.857-5.513V11.036h2.615
			v12.252c0,4.469-3.242,7.551-7.473,7.551c-4.231,0-7.48-3.082-7.48-7.551V11.036H121.668z"/>
		<path fill="#FFFFFF" d="M137.953,9.725h2.456v13.311l5.565-5.589h3.407l-6.028,5.868l6.55,7.038h-3.492l-6.002-6.714v6.714h-2.456
			V9.725z"/>
		<path fill="#FFFFFF" d="M152.127,17.42h2.455v1.99h0.053c0.628-1.362,2.265-2.316,3.876-2.316c0.382,0,0.766,0.053,1.09,0.162
			l-0.106,2.646c-0.409-0.108-0.819-0.191-1.202-0.191c-2.403,0-3.71,1.313-3.71,4.145v6.497h-2.455V17.42z"/>
		<path fill="#FFFFFF" d="M162.009,19c1.365-1.279,3.326-1.906,5.129-1.906c3.823,0,5.4,2.073,5.4,4.307v6.607
			c0,0.897,0.025,1.663,0.112,2.345h-2.185c-0.055-0.655-0.081-1.308-0.081-1.961h-0.052c-1.095,1.662-2.568,2.29-4.535,2.29
			c-2.396,0-4.47-1.366-4.47-3.875c0-3.327,3.188-4.477,7.116-4.477h1.803v-0.547c0-1.333-0.983-2.726-3.083-2.726
			c-1.882,0-2.778,0.792-3.682,1.472L162.009,19z M168.94,24.132c-2.324,0-5.157,0.41-5.157,2.481c0,1.474,1.09,2.1,2.78,2.1
			c2.733,0,3.684-2.02,3.684-3.763v-0.818H168.94z"/>
		<path fill="#FFFFFF" d="M177.502,10.979c0.978,0,1.797,0.82,1.797,1.803c0,0.981-0.819,1.799-1.797,1.799
			c-0.981,0-1.802-0.817-1.802-1.799C175.7,11.799,176.521,10.979,177.502,10.979z M176.273,17.42h2.457v12.932h-2.457V17.42z"/>
		<path fill="#FFFFFF" d="M182.571,17.42h2.454v1.99h0.053c0.637-1.362,2.272-2.316,4.26-2.316c2.514,0,4.692,1.499,4.692,4.933
			v8.326h-2.454v-7.64c0-2.429-1.394-3.329-2.944-3.329c-2.047,0-3.606,1.31-3.606,4.314v6.654h-2.454V17.42z"/>
		<path fill="#FFFFFF" d="M199.63,24.787c0,2.263,2.105,3.762,4.37,3.762c1.498,0,2.588-0.76,3.545-1.935l1.854,1.42
			c-1.365,1.77-3.248,2.647-5.729,2.647c-4.095,0-6.655-2.951-6.655-6.793c0-3.877,2.807-6.795,6.681-6.795
			c4.56,0,6.304,3.488,6.304,6.82v0.873H199.63z M207.381,22.819c-0.053-2.152-1.255-3.762-3.736-3.762
			c-2.431,0-4.015,2.045-4.015,3.762H207.381z"/>
	</g>
</g>
</svg>
